# xmcd
#
# Track frame offsets:
#	150
#	17631
#	41745
#	58023
#	71662
#	80906
#	107021
#	124788
#	145048
#	161339
#	177800
#
# Disc length: 2553 seconds
#
# Revision: 0
# Processed by: cddbd v1.5.2PL0 Copyright (c) Steve Scherf et al.
# Submitted via: EasyCDDAExtractor 2010.6.0.0
#
DISCID=9209f70b
DTITLE=Sixpack Holiday - Songs from the doghouse
DYEAR=2008
DGENRE=Country
TTITLE0=Melancholy Annie
TTITLE1=Kickin' out the country
TTITLE2=Lost in love
TTITLE3=Good times
TTITLE4=Go out tonight
TTITLE5=Wheatfields
TTITLE6=Gram
TTITLE7=Blue
TTITLE8=State of mind
TTITLE9=Enough
TTITLE10=13
EXTD=
EXTT0=
EXTT1=
EXTT2=
EXTT3=
EXTT4=
EXTT5=
EXTT6=
EXTT7=
EXTT8=
EXTT9=
EXTT10=
PLAYORDER=
